<mxfile host="Electron" modified="2025-02-24T13:12:17.505Z" agent="Mozilla/5.0 (Macintosh; Intel Mac OS X 10_15_7) AppleWebKit/537.36 (KHTML, like Gecko) draw.io/21.6.1 Chrome/112.0.5615.204 Electron/24.6.1 Safari/537.36" etag="1PSURmf08QLY2tU0hwMD" version="21.6.1" type="device">
  <diagram name="Page-1" id="Pt7UARcE6eVxD49dL5WZ">
    <mxGraphModel dx="895" dy="679" grid="1" gridSize="10" guides="1" tooltips="1" connect="1" arrows="1" fold="1" page="1" pageScale="1" pageWidth="1169" pageHeight="827" math="0" shadow="0">
      <root>
        <mxCell id="0" />
        <mxCell id="1" parent="0" />
        <mxCell id="IoF4s05tC3KGbcNtb1Y--18" value="&lt;font style=&quot;font-size: 26px;&quot;&gt;Typical Researcher Workflow&lt;/font&gt;" style="rounded=1;whiteSpace=wrap;html=1;fillColor=none;verticalAlign=top;" vertex="1" parent="1">
          <mxGeometry x="70" y="105" width="840" height="450" as="geometry" />
        </mxCell>
        <mxCell id="IoF4s05tC3KGbcNtb1Y--4" value="" style="edgeStyle=orthogonalEdgeStyle;rounded=0;orthogonalLoop=1;jettySize=auto;html=1;" edge="1" parent="1" source="IoF4s05tC3KGbcNtb1Y--1" target="IoF4s05tC3KGbcNtb1Y--3">
          <mxGeometry relative="1" as="geometry" />
        </mxCell>
        <mxCell id="IoF4s05tC3KGbcNtb1Y--1" value="Sensoren Erfassen" style="rounded=1;whiteSpace=wrap;html=1;" vertex="1" parent="1">
          <mxGeometry x="130" y="210" width="120" height="60" as="geometry" />
        </mxCell>
        <mxCell id="IoF4s05tC3KGbcNtb1Y--6" value="" style="edgeStyle=orthogonalEdgeStyle;rounded=0;orthogonalLoop=1;jettySize=auto;html=1;" edge="1" parent="1" source="IoF4s05tC3KGbcNtb1Y--3" target="IoF4s05tC3KGbcNtb1Y--5">
          <mxGeometry relative="1" as="geometry" />
        </mxCell>
        <mxCell id="IoF4s05tC3KGbcNtb1Y--3" value="Projekt Erfassen" style="rounded=1;whiteSpace=wrap;html=1;" vertex="1" parent="1">
          <mxGeometry x="330" y="210" width="120" height="60" as="geometry" />
        </mxCell>
        <mxCell id="IoF4s05tC3KGbcNtb1Y--8" value="" style="edgeStyle=orthogonalEdgeStyle;rounded=0;orthogonalLoop=1;jettySize=auto;html=1;" edge="1" parent="1" source="IoF4s05tC3KGbcNtb1Y--5" target="IoF4s05tC3KGbcNtb1Y--7">
          <mxGeometry relative="1" as="geometry" />
        </mxCell>
        <mxCell id="IoF4s05tC3KGbcNtb1Y--5" value="Sensor Node Templates Erfassen" style="rounded=1;whiteSpace=wrap;html=1;" vertex="1" parent="1">
          <mxGeometry x="530" y="210" width="120" height="60" as="geometry" />
        </mxCell>
        <mxCell id="IoF4s05tC3KGbcNtb1Y--10" value="" style="edgeStyle=orthogonalEdgeStyle;rounded=0;orthogonalLoop=1;jettySize=auto;html=1;" edge="1" parent="1" source="IoF4s05tC3KGbcNtb1Y--7" target="IoF4s05tC3KGbcNtb1Y--9">
          <mxGeometry relative="1" as="geometry" />
        </mxCell>
        <mxCell id="IoF4s05tC3KGbcNtb1Y--7" value="Sensor Node Erfassen" style="rounded=1;whiteSpace=wrap;html=1;" vertex="1" parent="1">
          <mxGeometry x="730" y="210" width="120" height="60" as="geometry" />
        </mxCell>
        <mxCell id="IoF4s05tC3KGbcNtb1Y--12" value="" style="edgeStyle=orthogonalEdgeStyle;rounded=0;orthogonalLoop=1;jettySize=auto;html=1;exitX=0;exitY=0.25;exitDx=0;exitDy=0;" edge="1" parent="1" source="IoF4s05tC3KGbcNtb1Y--9" target="IoF4s05tC3KGbcNtb1Y--11">
          <mxGeometry relative="1" as="geometry" />
        </mxCell>
        <mxCell id="IoF4s05tC3KGbcNtb1Y--15" style="edgeStyle=orthogonalEdgeStyle;rounded=0;orthogonalLoop=1;jettySize=auto;html=1;exitX=0;exitY=0.75;exitDx=0;exitDy=0;entryX=1;entryY=0.5;entryDx=0;entryDy=0;" edge="1" parent="1" source="IoF4s05tC3KGbcNtb1Y--9" target="IoF4s05tC3KGbcNtb1Y--14">
          <mxGeometry relative="1" as="geometry" />
        </mxCell>
        <mxCell id="IoF4s05tC3KGbcNtb1Y--9" value="Firmware Generieren" style="rounded=1;whiteSpace=wrap;html=1;" vertex="1" parent="1">
          <mxGeometry x="730" y="370" width="120" height="60" as="geometry" />
        </mxCell>
        <mxCell id="IoF4s05tC3KGbcNtb1Y--11" value="Firmware downloaded" style="rounded=1;whiteSpace=wrap;html=1;" vertex="1" parent="1">
          <mxGeometry x="530" y="320" width="120" height="60" as="geometry" />
        </mxCell>
        <mxCell id="IoF4s05tC3KGbcNtb1Y--17" value="" style="edgeStyle=orthogonalEdgeStyle;rounded=0;orthogonalLoop=1;jettySize=auto;html=1;" edge="1" parent="1" source="IoF4s05tC3KGbcNtb1Y--14" target="IoF4s05tC3KGbcNtb1Y--16">
          <mxGeometry relative="1" as="geometry" />
        </mxCell>
        <mxCell id="IoF4s05tC3KGbcNtb1Y--14" value="HW verbinden" style="rounded=1;whiteSpace=wrap;html=1;" vertex="1" parent="1">
          <mxGeometry x="530" y="420" width="120" height="60" as="geometry" />
        </mxCell>
        <mxCell id="IoF4s05tC3KGbcNtb1Y--16" value="HW Flashed" style="rounded=1;whiteSpace=wrap;html=1;" vertex="1" parent="1">
          <mxGeometry x="330" y="420" width="120" height="60" as="geometry" />
        </mxCell>
      </root>
    </mxGraphModel>
  </diagram>
</mxfile>
